HIERARCHY
ROOT Hips
{
  OFFSET 0.000000 0.000000 0.000000
  CHANNELS 6 Xposition Yposition Zposition Xrotation Yrotation Zrotation
  JOINT Spine
  {
    OFFSET -1.605968 -23.793274 -0.756600
    CHANNELS 3 Xrotation Yrotation Zrotation
    JOINT Chest
    {
      OFFSET -1.605968 -23.793274 -0.756600
      CHANNELS 3 Xrotation Yrotation Zrotation
      JOINT Neck
      {
        OFFSET -6.288522 -17.427103 -1.717909
        CHANNELS 3 Xrotation Yrotation Zrotation
        JOINT Head
        {
          OFFSET -6.418879 2.270624 -1.669267
          CHANNELS 3 Xrotation Yrotation Zrotation
          End Site
          {
            OFFSET 0.0 5.0 2.0
          }
        }
      }
      JOINT LeftShoulder
      {
        OFFSET 4.993806 -0.965454 -8.751451
        CHANNELS 3 Xrotation Yrotation Zrotation
        JOINT LeftArm
        {
          OFFSET -0.637901 21.036452 -4.788065
          CHANNELS 3 Xrotation Yrotation Zrotation
          JOINT LeftForeArm
          {
            OFFSET -12.620728 13.003071 -2.408415
            CHANNELS 3 Xrotation Yrotation Zrotation
            JOINT LeftHand
            {
              OFFSET -3.572583 3.611593 -2.340508
              CHANNELS 3 Xrotation Yrotation Zrotation
              End Site
              {
                OFFSET -3.0 0.0 2.0
              }
            }
          }
        }
      }
      JOINT RightShoulder
      {
        OFFSET -4.993806 0.965454 8.751451
        CHANNELS 3 Xrotation Yrotation Zrotation
        JOINT RightArm
        {
          OFFSET -4.928958 22.036360 -3.025883
          CHANNELS 3 Xrotation Yrotation Zrotation
          JOINT RightForeArm
          {
            OFFSET -12.506123 12.168533 -13.661999
            CHANNELS 3 Xrotation Yrotation Zrotation
            JOINT RightHand
            {
              OFFSET 5.000000 0.000000 0.000000
              CHANNELS 3 Xrotation Yrotation Zrotation
              End Site
              {
                OFFSET 3.0 0.0 2.0
              }
            }
          }
        }
      }
    }
  }
  JOINT LeftUpLeg
  {
    OFFSET 5.454339 0.341272 -5.424501
    CHANNELS 3 Xrotation Yrotation Zrotation
    JOINT LeftLeg
    {
      OFFSET -0.590307 39.928713 2.000000
      CHANNELS 3 Xrotation Yrotation Zrotation
      JOINT LeftFoot
      {
        OFFSET 8.025014 35.612765 7.026376
        CHANNELS 3 Xrotation Yrotation Zrotation
        JOINT LeftToeBase
        {
          OFFSET -2.284864 5.638587 -11.032027
          CHANNELS 3 Xrotation Yrotation Zrotation
          End Site
          {
            OFFSET 0.0 -1.0 3.0
          }
        }
      }
    }
  }
  JOINT RightUpLeg
  {
    OFFSET -5.454339 -0.341272 5.424501
    CHANNELS 3 Xrotation Yrotation Zrotation
    JOINT RightLeg
    {
      OFFSET -1.968025 39.300493 2.000000
      CHANNELS 3 Xrotation Yrotation Zrotation
      JOINT RightFoot
      {
        OFFSET 6.495313 37.662619 6.668724
        CHANNELS 3 Xrotation Yrotation Zrotation
        JOINT RightToeBase
        {
          OFFSET -6.948810 7.036144 -9.344696
          CHANNELS 3 Xrotation Yrotation Zrotation
          End Site
          {
            OFFSET 0.0 -1.0 3.0
          }
        }
      }
    }
  }
}
MOTION
Frames: 10
Frame Time: 0.066667
0.000000 0.000000 0.000000 0.084382 19.669814 1.148987 -2.999020 0.186736 2.825911 4.173376 7.168368 1.781201 -4.019252 -7.707152 4.002983 0.000000 0.000000 0.000000 -21.461472 1.480023 4.975633 -30.338553 -15.318015 25.987966 -28.871847 -2.247182 28.896974 0.000000 0.000000 0.000000 18.379962 4.337700 -8.769058 -35.378559 -47.146182 2.890870 -155.210076 53.771859 -167.283647 0.000000 0.000000 0.000000 -9.872480 0.569944 19.656818 -6.770247 2.390377 -6.670971 94.033390 20.026046 15.765872 0.000000 0.000000 0.000000 -5.555545 -0.265669 -5.360431 -12.087089 4.418587 -36.117174 52.116846 18.313026 -35.410835 0.000000 0.000000 0.000000
0.000000 0.000000 0.000000 -4.150880 18.970497 -3.130828 -5.265400 0.348860 -0.436248 -1.336214 0.037641 -0.767937 -10.510458 -24.781395 4.364075 0.000000 0.000000 0.000000 -42.465115 20.579327 32.376961 7.864633 8.964694 34.833450 11.945456 15.717241 12.313063 0.000000 0.000000 0.000000 -6.344264 -0.192043 6.362485 -39.244103 -35.339227 11.088096 -11.351353 40.731204 -29.976437 0.000000 0.000000 0.000000 -13.622940 1.639186 26.304513 -9.095236 4.564172 -23.425928 54.408529 14.512181 3.877386 0.000000 0.000000 0.000000 -6.179910 -0.315117 -1.924197 -14.024195 3.014661 -13.072201 61.906328 25.733480 -39.788688 0.000000 0.000000 0.000000
0.000000 0.000000 0.000000 -7.475060 23.204752 -6.258347 -5.335512 0.321282 -2.577545 -3.805933 -0.192655 -2.154621 -15.322119 -34.453149 6.611483 0.000000 0.000000 0.000000 -40.539749 23.120852 37.157579 10.947519 10.465150 42.602468 7.244572 14.380173 16.991834 0.000000 0.000000 0.000000 -16.649489 -1.112161 9.288724 -45.117380 -33.118092 16.557983 -8.885231 26.228079 -36.887086 0.000000 0.000000 0.000000 -13.743387 2.274791 34.469723 -7.537006 4.720440 -24.849059 66.933281 12.252818 -1.986999 0.000000 0.000000 0.000000 -5.912000 -0.296959 -1.625043 -13.022357 2.501953 -5.022691 62.237242 34.602479 -9.590317 0.000000 0.000000 0.000000
0.000000 0.000000 0.000000 -6.089801 16.371517 -5.195851 0.979587 0.032962 -2.456298 -2.810760 -1.163493 -1.459639 -10.471391 -28.858348 1.406751 0.000000 0.000000 0.000000 -18.762934 29.792492 68.305131 37.031329 17.941571 54.916045 23.259612 19.527228 -3.605791 0.000000 0.000000 0.000000 -33.937926 -1.921902 13.340238 -61.089170 -26.879263 30.057917 -3.593673 21.669407 -18.617496 0.000000 0.000000 0.000000 -11.934686 1.147809 24.151042 9.764245 -1.713079 -1.822002 72.359466 20.665940 14.538687 0.000000 0.000000 0.000000 -15.084965 0.529219 15.800821 -5.081411 1.652535 -6.051878 61.481132 36.820237 2.383627 0.000000 0.000000 0.000000
0.000000 0.000000 0.000000 -2.360987 -1.119137 -2.442107 5.244143 -0.162225 -2.473808 -3.538963 -8.055684 -0.920742 -9.112104 -31.354555 -2.774838 0.000000 0.000000 0.000000 -29.539416 33.270268 61.845348 29.288971 17.671409 43.546128 16.111071 10.587463 -10.698376 0.000000 0.000000 0.000000 -27.960557 -3.872800 6.694015 -49.697688 -31.524310 20.572396 -0.507200 20.060112 -2.867095 0.000000 0.000000 0.000000 -9.752882 0.329740 13.457645 30.657631 -8.175606 1.371174 80.765623 18.048777 8.615214 0.000000 0.000000 0.000000 -20.926307 1.769667 21.154358 3.832093 -2.176120 7.018344 62.839077 36.785808 -0.294531 0.000000 0.000000 0.000000
0.000000 0.000000 0.000000 -1.846725 -3.049430 -2.052414 6.430055 -0.269421 -1.878018 -3.508734 -14.292100 0.023952 -7.066154 -33.379711 -7.769720 0.000000 0.000000 0.000000 -18.521646 31.984441 72.662419 45.987462 28.218577 32.488929 23.849583 12.301676 -29.317061 0.000000 0.000000 0.000000 -24.544680 2.507462 22.587646 -50.760022 -52.004963 14.104092 1.157582 17.045751 7.713056 0.000000 0.000000 0.000000 -9.659202 0.301878 12.932012 18.609902 -3.698262 -1.766544 112.055809 15.894191 -15.458101 0.000000 0.000000 0.000000 -14.646835 0.930558 21.426450 0.747405 -2.716297 13.706755 65.426365 41.869804 27.220891 0.000000 0.000000 0.000000
0.000000 0.000000 0.000000 -3.625815 38.060289 -1.787654 -0.966444 0.057394 0.335356 4.187719 32.302789 -0.048828 11.248772 29.553903 -4.708248 0.000000 0.000000 0.000000 -10.885008 8.141544 25.479949 26.045990 21.869891 11.252039 26.864626 21.739568 -7.570167 0.000000 0.000000 0.000000 38.276314 7.037832 6.759181 52.979173 44.882282 66.840647 -4.384040 -16.503596 29.569973 0.000000 0.000000 0.000000 -6.739622 0.332803 46.765600 -9.020575 -1.026274 25.155168 81.591566 43.411686 75.403397 0.000000 0.000000 0.000000 6.400893 0.150209 1.600740 -3.394472 4.772036 -29.387084 43.743681 19.190332 -20.483505 0.000000 0.000000 0.000000
0.000000 0.000000 0.000000 -2.897527 52.613002 -0.522304 -3.906847 0.268001 1.821126 7.979256 43.618860 2.184134 15.830304 38.934648 0.973362 0.000000 0.000000 0.000000 -12.959508 4.471119 13.908889 19.700002 19.408128 -5.919316 25.774485 9.290627 -42.863557 0.000000 0.000000 0.000000 36.692222 7.900839 1.076814 36.266185 39.603792 40.264963 -13.860458 -11.920337 98.679658 0.000000 0.000000 0.000000 -5.535926 -0.160931 43.871906 -9.918444 0.403265 16.564408 84.362204 40.791797 72.840484 0.000000 0.000000 0.000000 0.382028 -0.501453 9.615458 -13.406082 4.362841 -38.727017 72.636957 37.987372 -20.476407 0.000000 0.000000 0.000000
0.000000 0.000000 0.000000 -2.822484 59.769537 -0.201302 -3.044131 0.197372 1.560805 11.640184 45.968027 4.989700 10.733187 28.359434 -7.131288 0.000000 0.000000 0.000000 5.232278 1.706636 8.612113 57.243830 33.726993 33.316333 27.219126 25.322262 12.675049 0.000000 0.000000 0.000000 30.442224 6.652819 0.438670 33.863164 40.836736 46.372567 -110.506827 -11.541111 171.980605 0.000000 0.000000 0.000000 -2.425418 -1.489365 47.693735 -3.720440 -1.547976 14.204046 50.554820 47.519136 53.312906 0.000000 0.000000 0.000000 -0.745856 0.102048 -3.137760 -13.234369 4.312845 -37.310624 57.265495 29.269223 -19.209977 0.000000 0.000000 0.000000
0.000000 0.000000 0.000000 -0.259180 70.092322 2.705163 -2.236198 0.144083 0.556120 15.591978 58.620812 7.971833 16.761888 41.977500 -2.008663 0.000000 0.000000 0.000000 7.023230 1.433350 7.466747 63.323760 41.407427 25.064060 33.986631 20.413893 -55.568133 0.000000 0.000000 0.000000 20.787374 5.715904 -20.105155 27.800146 32.530865 23.272395 -36.340311 -3.376015 169.738278 0.000000 0.000000 0.000000 -0.772746 -2.310569 49.999924 -2.622113 -1.251147 10.418320 70.132943 42.928490 61.278100 0.000000 0.000000 0.000000 1.034576 0.305172 -4.214838 -14.044650 3.818347 -29.820119 48.956970 22.553496 -21.718315 0.000000 0.000000 0.000000
